<svg width="167" height="33" viewBox="0 0 167 33" fill="none" xmlns="http://www.w3.org/2000/svg">
<path d="M9.696 24.264C8.416 24.264 7.248 24.056 6.192 23.64C5.136 23.224 4.224 22.632 3.456 21.864C2.704 21.08 2.12 20.152 1.704 19.08C1.304 18.008 1.104 16.824 1.104 15.528C1.104 14.216 1.304 13.024 1.704 11.952C2.12 10.88 2.704 9.96 3.456 9.192C4.224 8.424 5.136 7.84 6.192 7.44C7.248 7.024 8.416 6.816 9.696 6.816C10.976 6.816 12.144 7.024 13.2 7.44C14.256 7.84 15.16 8.424 15.912 9.192C16.68 9.96 17.264 10.88 17.664 11.952C18.08 13.008 18.288 14.192 18.288 15.504C18.288 16.832 18.08 18.032 17.664 19.104C17.264 20.176 16.68 21.104 15.912 21.888C15.16 22.656 14.256 23.248 13.2 23.664C12.144 24.064 10.976 24.264 9.696 24.264ZM9.696 20.568C10.544 20.568 11.264 20.368 11.856 19.968C12.448 19.568 12.904 18.992 13.224 18.24C13.544 17.488 13.704 16.584 13.704 15.528C13.704 14.472 13.544 13.568 13.224 12.816C12.92 12.064 12.464 11.496 11.856 11.112C11.264 10.712 10.544 10.512 9.696 10.512C8.864 10.512 8.144 10.712 7.536 11.112C6.944 11.496 6.488 12.064 6.168 12.816C5.848 13.568 5.688 14.472 5.688 15.528C5.688 16.584 5.84 17.488 6.144 18.24C6.464 18.992 6.928 19.568 7.536 19.968C8.144 20.368 8.864 20.568 9.696 20.568ZM21.8074 24V12.192H25.9594V14.256H25.6954C26.0794 13.504 26.6234 12.928 27.3274 12.528C28.0474 12.128 28.8634 11.928 29.7754 11.928C30.7194 11.928 31.4954 12.112 32.1034 12.48C32.7114 12.832 33.1674 13.392 33.4714 14.16C33.7754 14.912 33.9274 15.864 33.9274 17.016V24H29.6554V17.184C29.6554 16.704 29.5994 16.32 29.4874 16.032C29.3754 15.728 29.2074 15.512 28.9834 15.384C28.7754 15.256 28.5114 15.192 28.1914 15.192C27.7594 15.192 27.3834 15.288 27.0634 15.48C26.7434 15.656 26.4954 15.912 26.3194 16.248C26.1594 16.584 26.0794 16.984 26.0794 17.448V24H21.8074ZM43.9941 24.264C42.5541 24.264 41.3061 24.016 40.2501 23.52C39.2101 23.008 38.4101 22.288 37.8501 21.36C37.2901 20.432 37.0101 19.336 37.0101 18.072C37.0101 16.856 37.2741 15.792 37.8021 14.88C38.3461 13.952 39.0821 13.232 40.0101 12.72C40.9541 12.192 42.0261 11.928 43.2261 11.928C44.4261 11.928 45.4581 12.176 46.3221 12.672C47.1861 13.168 47.8501 13.88 48.3141 14.808C48.7941 15.72 49.0341 16.792 49.0341 18.024V18.96H40.5861V16.944H45.9141L45.5301 17.256C45.5301 16.392 45.3461 15.752 44.9781 15.336C44.6101 14.904 44.0901 14.688 43.4181 14.688C42.9221 14.688 42.4901 14.808 42.1221 15.048C41.7701 15.272 41.4981 15.608 41.3061 16.056C41.1141 16.504 41.0181 17.064 41.0181 17.736V17.952C41.0181 18.704 41.1221 19.312 41.3301 19.776C41.5541 20.24 41.8981 20.584 42.3621 20.808C42.8261 21.016 43.4101 21.12 44.1141 21.12C44.7221 21.12 45.3541 21.032 46.0101 20.856C46.6821 20.664 47.2741 20.392 47.7861 20.04L48.8421 22.848C48.2341 23.28 47.4901 23.624 46.6101 23.88C45.7301 24.136 44.8581 24.264 43.9941 24.264ZM50.8746 24.264L50.6106 20.736L52.5786 20.616C52.9786 20.6 53.2986 20.536 53.5386 20.424C53.7786 20.296 53.9546 20.112 54.0666 19.872C54.1946 19.632 54.2586 19.328 54.2586 18.96V7.08H58.6746V18.888C58.6746 19.992 58.4746 20.928 58.0746 21.696C57.6746 22.448 57.0826 23.024 56.2986 23.424C55.5146 23.824 54.5226 24.064 53.3226 24.144L50.8746 24.264ZM68.6256 24.264C67.3136 24.264 66.1696 24.016 65.1936 23.52C64.2176 23.024 63.4576 22.312 62.9136 21.384C62.3696 20.456 62.0976 19.36 62.0976 18.096C62.0976 16.816 62.3696 15.72 62.9136 14.808C63.4576 13.88 64.2176 13.168 65.1936 12.672C66.1696 12.176 67.3136 11.928 68.6256 11.928C69.9376 11.928 71.0816 12.176 72.0576 12.672C73.0336 13.168 73.7856 13.88 74.3136 14.808C74.8576 15.72 75.1296 16.816 75.1296 18.096C75.1296 19.36 74.8576 20.456 74.3136 21.384C73.7856 22.312 73.0336 23.024 72.0576 23.52C71.0816 24.016 69.9376 24.264 68.6256 24.264ZM68.6256 21.12C69.2656 21.12 69.7936 20.88 70.2096 20.4C70.6256 19.92 70.8336 19.152 70.8336 18.096C70.8336 17.024 70.6256 16.256 70.2096 15.792C69.7936 15.312 69.2656 15.072 68.6256 15.072C67.9696 15.072 67.4336 15.312 67.0176 15.792C66.6016 16.256 66.3936 17.024 66.3936 18.096C66.3936 19.152 66.6016 19.92 67.0176 20.4C67.4336 20.88 67.9696 21.12 68.6256 21.12ZM82.7031 24.264C81.6791 24.264 80.8391 24.08 80.1831 23.712C79.5271 23.328 79.0311 22.76 78.6951 22.008C78.3751 21.256 78.2151 20.304 78.2151 19.152V12.192H82.4871V19.272C82.4871 19.656 82.5351 19.976 82.6311 20.232C82.7431 20.488 82.9111 20.68 83.1351 20.808C83.3591 20.936 83.6391 21 83.9751 21C84.3591 21 84.6951 20.912 84.9831 20.736C85.2871 20.544 85.5191 20.28 85.6791 19.944C85.8551 19.592 85.9431 19.184 85.9431 18.72V12.192H90.2151V24H86.0391V21.84H86.4231C86.0711 22.624 85.5751 23.224 84.9351 23.64C84.3111 24.056 83.5671 24.264 82.7031 24.264ZM93.9011 24V12.192H98.0531V15.096H97.8131C97.9731 14.136 98.3731 13.392 99.0131 12.864C99.6691 12.32 100.525 12.016 101.581 11.952L102.757 11.856L102.997 15.456L100.669 15.672C99.8211 15.752 99.2051 15.992 98.8211 16.392C98.4371 16.776 98.2451 17.352 98.2451 18.12V24H93.9011ZM105.507 24V12.192H109.659V14.256H109.395C109.779 13.504 110.323 12.928 111.027 12.528C111.747 12.128 112.563 11.928 113.475 11.928C114.419 11.928 115.195 12.112 115.803 12.48C116.411 12.832 116.867 13.392 117.171 14.16C117.475 14.912 117.627 15.864 117.627 17.016V24H113.355V17.184C113.355 16.704 113.299 16.32 113.187 16.032C113.075 15.728 112.907 15.512 112.683 15.384C112.475 15.256 112.211 15.192 111.891 15.192C111.459 15.192 111.083 15.288 110.763 15.48C110.443 15.656 110.195 15.912 110.019 16.248C109.859 16.584 109.779 16.984 109.779 17.448V24H105.507ZM127.694 24.264C126.254 24.264 125.006 24.016 123.95 23.52C122.91 23.008 122.11 22.288 121.55 21.36C120.99 20.432 120.71 19.336 120.71 18.072C120.71 16.856 120.974 15.792 121.502 14.88C122.046 13.952 122.782 13.232 123.71 12.72C124.654 12.192 125.726 11.928 126.926 11.928C128.126 11.928 129.158 12.176 130.022 12.672C130.886 13.168 131.55 13.88 132.014 14.808C132.494 15.72 132.734 16.792 132.734 18.024V18.96H124.286V16.944H129.614L129.23 17.256C129.23 16.392 129.046 15.752 128.678 15.336C128.31 14.904 127.79 14.688 127.118 14.688C126.622 14.688 126.19 14.808 125.822 15.048C125.47 15.272 125.198 15.608 125.006 16.056C124.814 16.504 124.718 17.064 124.718 17.736V17.952C124.718 18.704 124.822 19.312 125.03 19.776C125.254 20.24 125.598 20.584 126.062 20.808C126.526 21.016 127.11 21.12 127.814 21.12C128.422 21.12 129.054 21.032 129.71 20.856C130.382 20.664 130.974 20.392 131.486 20.04L132.542 22.848C131.934 23.28 131.19 23.624 130.31 23.88C129.43 24.136 128.558 24.264 127.694 24.264ZM136.284 28.32L139.044 22.344V24.072L133.836 12.192H138.324L141.3 19.92H140.484L143.604 12.192H147.828L140.604 28.32H136.284Z" fill="#E96450"/>
<path d="M153.68 19V12.7H151.13V11.95H157.09V12.7H154.54V19H153.68ZM158.181 19V11.95H159.031L161.731 17.15H161.541L164.231 11.95H165.061V19H164.261V13.13H164.401L161.931 17.9H161.331L158.841 13.13H158.991V19H158.181Z" fill="black"/>
</svg>
